<svg width="104" height="22" viewBox="0 0 104 22" fill="none" xmlns="http://www.w3.org/2000/svg">
<path d="M0.0530968 1.85714H4.39767L12.2932 15.121V1.85714H16.1535V20.8571H12.0107L3.91342 7.36123V20.8571H0.0530968V1.85714ZM16.9971 1.88294H31.0531V5.22146H21.113V9.59119H29.8155V12.8911H21.113V20.8571H16.9971V1.88294Z" fill="black"/>
<path d="M42.0443 8.90909C41.1501 8.90909 40.4546 9.17747 39.9578 9.71429C39.4699 10.2511 39.1629 10.9783 39.0363 11.8961H45.0385C44.9752 10.9177 44.6636 10.1775 44.1037 9.67531C43.5525 9.1645 42.8661 8.90909 42.0443 8.90909ZM42.0443 5.85714C43.2728 5.85714 44.3792 6.07793 45.3636 6.51947C46.3481 6.96102 47.1612 7.65801 47.8023 8.61039C48.3803 9.45021 48.7552 10.4242 48.9269 11.5324C49.0263 12.1818 49.0671 13.1169 49.0489 14.3376H38.9415C38.9959 15.7576 39.4609 16.7532 40.337 17.3247C40.87 17.6797 41.5114 17.8571 42.2611 17.8571C43.056 17.8571 43.7017 17.6407 44.1985 17.2078C44.4694 16.974 44.7087 16.6493 44.9165 16.2338H48.8593C48.7598 17.0736 48.3037 17.9264 47.4907 18.7922C46.2261 20.1688 44.4558 20.8571 42.1796 20.8571C40.3009 20.8571 38.6435 20.2771 37.2073 19.1169C35.7714 17.9567 35.0531 16.0692 35.0531 13.4546C35.0531 11.0043 35.6991 9.12555 36.9905 7.81818C38.2912 6.5108 39.9757 5.85714 42.0443 5.85714Z" fill="black"/>
<path d="M53.0531 1.85714H67.0531V5.20021H57.1526V9.57588H65.8204V12.8802H57.1526V20.8571H53.0531V1.85714Z" fill="black"/>
<path d="M75.0209 14.279C74.7817 14.4302 74.5382 14.5547 74.2902 14.6526C74.051 14.7415 73.7188 14.826 73.2936 14.9061L72.4434 15.0662C71.6463 15.2085 71.0749 15.3819 70.7297 15.5865C70.145 15.9334 69.8528 16.4715 69.8528 17.2009C69.8528 17.8502 70.0299 18.3216 70.3842 18.6151C70.7473 18.8997 71.1858 19.042 71.6996 19.042C72.5142 19.042 73.2627 18.8019 73.9447 18.3216C74.6357 17.8413 74.9942 16.9652 75.0209 15.6932V14.279ZM72.7225 12.5046C73.4223 12.4156 73.9226 12.3044 74.2239 12.171C74.7641 11.9397 75.0342 11.5795 75.0342 11.0903C75.0342 10.4944 74.8262 10.0852 74.4098 9.86286C74.0022 9.6316 73.4002 9.51599 72.6029 9.51599C71.7084 9.51599 71.0749 9.73834 70.7031 10.1831C70.4372 10.5122 70.2601 10.9569 70.1716 11.5172H66.5179C66.5979 10.2453 66.9521 9.20022 67.5808 8.38193C68.5819 7.10111 70.3 6.4607 72.7358 6.4607C74.3214 6.4607 75.7295 6.77647 76.9607 7.40797C78.1919 8.03949 78.8075 9.23136 78.8075 10.9836V17.6545C78.8075 18.117 78.8163 18.6774 78.8339 19.3356C78.8605 19.8337 78.9359 20.1716 79.0598 20.3495C79.1839 20.5274 79.3698 20.6742 79.6178 20.7898V21.3502H75.4993C75.3842 21.0567 75.3043 20.7809 75.2601 20.523C75.2159 20.265 75.1804 19.9715 75.1538 19.6424C74.6312 20.2117 74.0289 20.6964 73.3469 21.0967C72.5321 21.5681 71.6109 21.8038 70.5835 21.8038C69.2726 21.8038 68.1876 21.4302 67.3285 20.6831C66.4782 19.927 66.0531 18.8597 66.0531 17.481C66.0531 15.6932 66.7396 14.3991 68.1122 13.5986C68.8653 13.1627 69.9724 12.8514 71.4338 12.6647L72.7225 12.5046ZM77.4522 0.857142L73.4133 4.84634H70.6764L73.2273 0.857142H77.4522ZM88.9263 12.0242C88.8555 11.4817 88.6741 10.9925 88.3818 10.5566C87.9567 9.96959 87.2966 9.67609 86.4021 9.67609C85.1266 9.67609 84.2542 10.3121 83.7849 11.584C83.5369 12.2599 83.4127 13.1583 83.4127 14.279C83.4127 15.3463 83.5369 16.2047 83.7849 16.854C84.2366 18.0636 85.0869 18.6685 86.3357 18.6685C87.2215 18.6685 87.8504 18.4283 88.2223 17.948C88.5944 17.4677 88.82 16.8451 88.8999 16.0802H92.766C92.6775 17.2364 92.2612 18.3305 91.5172 19.3622C90.3304 21.0255 88.572 21.8571 86.2428 21.8571C83.9133 21.8571 82.1993 21.1634 81.101 19.7758C80.0028 18.3883 79.4537 16.5871 79.4537 14.3724C79.4537 11.873 80.0603 9.92958 81.2737 8.54203C82.4873 7.15448 84.1613 6.4607 86.2958 6.4607C88.1114 6.4607 89.5952 6.86985 90.7465 7.68815C91.9069 8.50645 92.5933 9.95181 92.8059 12.0242H88.9263ZM97.4114 5.07316H93.5718V1.56427H97.4114V5.07316ZM93.5718 6.80758H97.4114V21.3502H93.5718V6.80758ZM103.053 21.3502H99.2665V1.68432H103.053V21.3502Z" fill="black"/>
<path d="M34.0531 11.3571L29.0531 16.8571V5.85714L34.0531 11.3571Z" fill="black"/>
</svg>
