<svg width="374" height="112" viewBox="0 0 374 112" fill="none" xmlns="http://www.w3.org/2000/svg">
<path d="M7.07812 20.9062H22.2188L49.7344 69.1406V20.9062H63.1875V90H48.75L20.5312 40.9219V90H7.07812V20.9062ZM66.1275 21H115.112V33.1406H80.4712V49.0312H110.799V61.0312H80.4712V90H66.1275V21Z" fill="white"/>
<path d="M152.391 46.5625C149.297 46.5625 146.891 47.5312 145.172 49.4688C143.484 51.4062 142.422 54.0312 141.984 57.3438H162.75C162.531 53.8125 161.453 51.1406 159.516 49.3281C157.609 47.4844 155.234 46.5625 152.391 46.5625ZM152.391 35.5469C156.641 35.5469 160.469 36.3438 163.875 37.9375C167.281 39.5312 170.094 42.0469 172.312 45.4844C174.312 48.5156 175.609 52.0312 176.203 56.0312C176.547 58.375 176.688 61.75 176.625 66.1562H141.656C141.844 71.2812 143.453 74.875 146.484 76.9375C148.328 78.2188 150.547 78.8594 153.141 78.8594C155.891 78.8594 158.125 78.0781 159.844 76.5156C160.781 75.6719 161.609 74.5 162.328 73H175.969C175.625 76.0312 174.047 79.1094 171.234 82.2344C166.859 87.2031 160.734 89.6875 152.859 89.6875C146.359 89.6875 140.625 87.5938 135.656 83.4062C130.688 79.2188 128.203 72.4062 128.203 62.9688C128.203 54.125 130.438 47.3438 134.906 42.625C139.406 37.9062 145.234 35.5469 152.391 35.5469Z" fill="white"/>
<path d="M190.312 21H239.297V33.1406H204.656V49.0312H234.984V61.0312H204.656V90H190.312V21Z" fill="white"/>
<path d="M267.406 65.1562C266.562 65.6875 265.703 66.125 264.828 66.4688C263.984 66.7812 262.812 67.0781 261.312 67.3594L258.312 67.9219C255.5 68.4219 253.484 69.0312 252.266 69.75C250.203 70.9688 249.172 72.8594 249.172 75.4219C249.172 77.7031 249.797 79.3594 251.047 80.3906C252.328 81.3906 253.875 81.8906 255.688 81.8906C258.562 81.8906 261.203 81.0469 263.609 79.3594C266.047 77.6719 267.312 74.5938 267.406 70.125V65.1562ZM259.297 58.9219C261.766 58.6094 263.531 58.2188 264.594 57.75C266.5 56.9375 267.453 55.6719 267.453 53.9531C267.453 51.8594 266.719 50.4219 265.25 49.6406C263.812 48.8281 261.688 48.4219 258.875 48.4219C255.719 48.4219 253.484 49.2031 252.172 50.7656C251.234 51.9219 250.609 53.4844 250.297 55.4531H237.406C237.688 50.9844 238.938 47.3125 241.156 44.4375C244.688 39.9375 250.75 37.6875 259.344 37.6875C264.938 37.6875 269.906 38.7969 274.25 41.0156C278.594 43.2344 280.766 47.4219 280.766 53.5781V77.0156C280.766 78.6406 280.797 80.6094 280.859 82.9219C280.953 84.6719 281.219 85.8594 281.656 86.4844C282.094 87.1094 282.75 87.625 283.625 88.0312V90H269.094C268.688 88.9688 268.406 88 268.25 87.0938C268.094 86.1875 267.969 85.1562 267.875 84C266.031 86 263.906 87.7031 261.5 89.1094C258.625 90.7656 255.375 91.5938 251.75 91.5938C247.125 91.5938 243.297 90.2812 240.266 87.6562C237.266 85 235.766 81.25 235.766 76.4062C235.766 70.125 238.188 65.5781 243.031 62.7656C245.688 61.2344 249.594 60.1406 254.75 59.4844L259.297 58.9219ZM275.984 18L261.734 32.0156H252.078L261.078 18H275.984ZM316.467 57.2344C316.217 55.3281 315.577 53.6094 314.546 52.0781C313.046 50.0156 310.717 48.9844 307.561 48.9844C303.061 48.9844 299.983 51.2188 298.327 55.6875C297.452 58.0625 297.014 61.2188 297.014 65.1562C297.014 68.9062 297.452 71.9219 298.327 74.2031C299.921 78.4531 302.921 80.5781 307.327 80.5781C310.452 80.5781 312.671 79.7344 313.983 78.0469C315.296 76.3594 316.092 74.1719 316.374 71.4844H330.014C329.702 75.5469 328.233 79.3906 325.608 83.0156C321.421 88.8594 315.217 91.7812 306.999 91.7812C298.78 91.7812 292.733 89.3438 288.858 84.4688C284.983 79.5938 283.046 73.2656 283.046 65.4844C283.046 56.7031 285.186 49.875 289.467 45C293.749 40.125 299.655 37.6875 307.186 37.6875C313.592 37.6875 318.827 39.125 322.889 42C326.983 44.875 329.405 49.9531 330.155 57.2344H316.467ZM346.404 32.8125H332.857V20.4844H346.404V32.8125ZM332.857 38.9062H346.404V90H332.857V38.9062ZM366.309 90H352.949V20.9062H366.309V90Z" fill="white"/>
<path d="M126 55L108.75 74.0526V35.9474L126 55Z" fill="white"/>
</svg>
